<svg xmlns="http://www.w3.org/2000/svg" viewBox="0 0 256 256">
  <path d="M128 34c-52 0-94 42-94 94s42 94 94 94 94-42 94-94c0-20-6-39-18-55l-16 12c9 12 14 27 14 43 0 41-33 74-74 74s-74-33-74-74 33-74 74-74c14 0 27 4 39 11l12-17c-16-9-34-14-51-14zm62 52 10 31-27-9zM101 79c-13 0-24 11-24 24 0 5 1 9 4 13-12 1-21 11-21 23 0 13 11 24 24 24 5 0 9-1 13-4-1 12 9 23 22 23s24-11 24-24c0-5-1-9-4-13 12-1 21-11 21-23 0-13-11-24-24-24-5 0-9 1-13 4 1-12-9-23-22-23zm0 20c2 0 4 1 4 4v18h-18c-2 0-4-2-4-4 0-10 8-18 18-18zm54 18c0 2-2 4-4 4h-18v-18c0-3 2-4 4-4 10 0 18 8 18 18zm-68 26h18v18c0 3-2 4-4 4-10 0-18-8-18-18 0-2 2-4 4-4zm46 0h18c2 0 4 2 4 4 0 10-8 18-18 18-2 0-4-1-4-4z" fill="#000"/>
</svg>